<svg xmlns="http://www.w3.org/2000/svg" xmlns:xlink="http://www.w3.org/1999/xlink" fill="none" version="1.1" width="30" height="30" viewBox="0 0 30 30"><defs><clipPath id="master_svg0_252_7222"><rect x="0" y="0" width="30" height="30" rx="0"/></clipPath></defs><g clip-path="url(#master_svg0_252_7222)"><g><path d="M18.03423779296875,1.827880859375L11.853077792968751,1.827880859375L7.07147779296875,1.827880859375C6.49415579296875,1.827880859375,6.01873779296875,2.301259859375,6.01873779296875,2.884750859375L6.01873779296875,7.086460859375C6.01873779296875,7.668940859375,6.40310679296875,8.420140859375,6.87699579296875,8.761790859375001L11.62412779296875,12.182480859375C11.797017792968749,12.306980859375,11.95857779296875,12.359480859375,12.093367792968749,12.349180859375C12.15407779296875,12.359480859375,12.21685779296875,12.365680859375,12.28064779296875,12.365680859375L17.54333779296875,12.365680859375C17.62773779296875,12.365680859375,17.71013779296875,12.355380859375,17.78883779296875,12.336880859375C17.93653779296875,12.376980859375,18.12373779296875,12.328580859375,18.327537792968748,12.182480859375L23.07463779296875,8.761820859375C23.54853779296875,8.420170859375,23.93293779296875,7.668970859375,23.93293779296875,7.086500859375L23.93293779296875,2.8847808593749997C23.93293779296875,2.301290859375,23.45753779296875,1.827911615375,22.88013779296875,1.827911615375L18.03423779296875,1.827880859375ZM16.55643779296875,3.674090859375C16.55643779296875,3.236710859375,16.90733779296875,2.881700859375,17.34683779296875,2.881700859375C17.783137792968752,2.881700859375,18.13713779296875,3.232610859375,18.13713779296875,3.674090859375L18.13713779296875,10.518480859375C18.13713779296875,10.956870859375,17.78623779296875,11.311890859375,17.34683779296875,11.311890859375C16.91043779296875,11.311890859375,16.55643779296875,10.959960859375,16.55643779296875,10.518480859375L16.55643779296875,3.674090859375ZM11.81449779296875,3.674090859375C11.81449779296875,3.236710859375,12.16540779296875,2.881700859375,12.604817792968749,2.881700859375C13.04114779296875,2.881700859375,13.39514779296875,3.232610859375,13.39514779296875,3.674090859375L13.39514779296875,10.518480859375C13.39514779296875,10.956870859375,13.044237792968751,11.311890859375,12.604817792968749,11.311890859375C12.16846779296875,11.311890859375,11.81449779296875,10.959960859375,11.81449779296875,10.518480859375L11.81449779296875,3.674090859375ZM14.97579779296875,28.172180859375C19.04993779296875,28.172180859375,22.35223779296875,24.869980859375,22.35223779296875,20.795780859375C22.35223779296875,16.721680859375,19.04993779296875,13.419480859375,14.97579779296875,13.419480859375C10.90167779296875,13.419480859375,7.59938779296875,16.721780859375002,7.59938779296875,20.795780859375C7.59938779296875,24.869980859375,10.90170779296875,28.172180859375,14.97579779296875,28.172180859375Z" fill="#41ABDD" fill-opacity="1"/></g><g><path d="M14.822,26.3C16.81,26.3,18.476,25.208,18.476,23.304000000000002C18.476,21.932000000000002,17.58,21.064,16.418,20.742L16.418,20.672C17.509999999999998,20.238,18.14,19.426000000000002,18.14,18.305999999999997C18.14,16.528,16.782,15.548,14.78,15.548C13.562,15.548,12.568,16.038,11.672,16.808L12.736,18.082C13.338000000000001,17.508,13.94,17.172,14.682,17.172C15.564,17.172,16.067999999999998,17.648,16.067999999999998,18.46C16.067999999999998,19.398,15.452,20.042,13.562,20.042L13.562,21.526C15.802,21.526,16.404,22.156,16.404,23.178C16.404,24.102,15.690000000000001,24.619999999999997,14.64,24.619999999999997C13.688,24.619999999999997,12.946,24.158,12.33,23.555999999999997L11.364,24.858C12.092,25.683999999999997,13.198,26.3,14.822,26.3Z" fill="#FFFFFF" fill-opacity="1"/></g></g></svg>