<svg xmlns="http://www.w3.org/2000/svg" width="38" height="38" viewBox="0 0 38 38">
  <g fill="none" fill-rule="evenodd">
      <circle cx="19" cy="19" r="19" fill="#F7F8FA"/>
      <path fill="#07c160" fill-rule="nonzero"
            d="M23.7896365,15.2859589 C23.8638824,15.2859589 23.9257541,15.2859589 24,15.2859589 C23.2946636,12.2773973 20.0154679,10 16.0680588,10 C11.6133024,10 8,12.9006849 8,16.4726027 C8,18.5821918 9.24980665,20.4520548 11.1925754,21.6267123 L10.3882444,24 L13.2714617,22.5376712 C14.1376643,22.8013699 15.0904872,22.9332192 16.0680588,22.9332192 C16.2784223,22.9332192 16.4887858,22.9212329 16.6867749,22.9092466 C16.5135344,22.3938356 16.4145398,21.8424657 16.4145398,21.2910959 C16.4145398,17.9828767 19.7184841,15.2859589 23.7896365,15.2859589 Z M18.8275329,13.1763699 C19.4091261,13.1763699 19.8793503,13.6438356 19.8793503,14.2071918 C19.8793503,14.7825343 19.4091261,15.2380137 18.8275329,15.2380137 C18.2459397,15.2380137 17.7757154,14.7825342 17.7757154,14.2071918 C17.7757154,13.6438356 18.2459397,13.1763699 18.8275329,13.1763699 Z M13.2590874,15.2380137 C12.6774942,15.2380137 12.2072699,14.7705479 12.2072699,14.2071918 C12.2072699,13.6318493 12.6774942,13.1763698 13.2590874,13.1763698 C13.8406806,13.1763698 14.3109049,13.6438356 14.3109049,14.2071918 C14.3109049,14.7825342 13.8406806,15.2380137 13.2590874,15.2380137 Z"/>
      <path fill="#07c160" fill-rule="nonzero"
            d="M30,21.5375254 C30,18.4827586 27.093692,16 23.5,16 C19.9183673,16 17,18.4827586 17,21.5375254 C17,24.5922921 19.906308,27.0750507 23.5,27.0750507 C24.2597403,27.0750507 24.9953618,26.9655173 25.6827458,26.7586207 L27.8654917,28 L27.2745826,26.0527383 C28.9267161,25.0425964 30,23.3995943 30,21.5375254 Z M21.3896104,20.6125761 C20.919295,20.6125761 20.5333952,20.2596349 20.5333952,19.8336714 C20.5333952,19.4077079 20.919295,19.0547668 21.3896104,19.0547668 C21.8599258,19.0547668 22.2458256,19.4077079 22.2458256,19.8336714 C22.2458256,20.2718053 21.8599258,20.6125761 21.3896104,20.6125761 Z M25.6465677,20.6125761 C25.1762523,20.6125761 24.7903525,20.2596349 24.7903525,19.8336714 C24.7903525,19.4077079 25.1762523,19.0547668 25.6465677,19.0547668 C26.1168831,19.0547668 26.5027829,19.4077079 26.5027829,19.8336714 C26.5027829,20.2718053 26.1168831,20.6125761 25.6465677,20.6125761 Z"/>
  </g>
</svg>
