<svg xmlns="http://www.w3.org/2000/svg" width="38" height="38" viewBox="0 0 38 38">
  <g fill="none" fill-rule="evenodd">
    <circle cx="19" cy="19" r="19" fill="#F7F8FA"/>
    <g fill-rule="nonzero" transform="translate(8 10)">
      <path fill="#148EF8" d="M20.7538545,14.2649729 C20.3431613,14.3468481 19.9515646,14.5053477 19.599544,14.7321824 C19.2545578,15.0942259 18.819004,15.3573937 18.3380456,15.4943974 C18.4021716,15.0638219 18.6156352,14.6708143 18.9381107,14.3803909 C19.2081463,13.9682271 19.4026535,13.5112834 19.5125299,13.0309446 C19.5110239,12.3481419 20.0631426,11.7933048 20.7459445,11.7914525 C21.4287463,11.7896094 21.9838597,12.3414503 21.9860558,13.0242511 C21.9882388,13.7070519 21.4366759,14.2624415 20.7538762,14.2649729 L20.7538545,14.2649729 Z"/>
      <path fill="#3FC914" d="M17.1461889,10.7223018 C16.6459644,10.7223018 16.1949953,10.4209739 16.0035676,9.9588267 C15.81214,9.49667952 15.9179523,8.96472511 16.2716644,8.61101297 C16.6253766,8.25730084 17.157331,8.15148853 17.6194782,8.34291616 C18.0816253,8.53434378 18.3829533,8.98531296 18.3829533,9.48553746 C18.4635489,9.89687644 18.6201373,10.2895811 18.8446906,10.6435179 C19.2044171,10.9912862 19.4649805,11.4286266 19.5995657,11.910532 C19.1719985,11.8423038 18.7814361,11.6275935 18.4947231,11.3031488 L18.4901629,11.3031488 C18.0808335,11.0311805 17.6254224,10.8344989 17.1461889,10.7223018 Z"/>
      <path fill="#148EF8" d="M16.4535939,6.94421281 C16.0807383,3.82115092 12.8468187,1.37418024 8.93407166,1.37418024 C4.76568947,1.37418024 1.37420195,4.14820847 1.37420195,7.55984799 C1.44094703,9.47545169 2.45243574,11.2335466 4.07494028,12.2540717 C4.33816322,12.4480401 4.61356868,12.6249077 4.89945711,12.7835831 L4.56416938,14.1220413 C4.68508143,14.1788491 4.80234528,14.2393051 4.9260152,14.2915309 L6.6190228,13.445038 C6.86636265,13.509164 7.12655809,13.55038 7.38488599,13.594354 C7.5497937,13.6236699 7.71470141,13.6538979 7.8841911,13.6740499 C8.93996958,13.8071565 10.0112022,13.745678 11.0448208,13.4926602 C11.0768046,13.9507277 11.1603883,14.4037216 11.2939848,14.8430402 C10.5203835,15.0243884 9.72862064,15.1169009 8.93404995,15.1187839 C8.22122289,15.1147616 7.51075549,15.0364668 6.81415852,14.8851683 L3.74234528,16.4187839 C3.50350339,16.5409546 3.21508419,16.5107905 3.00668838,16.3418458 C2.79747308,16.1742415 2.70484103,15.9002622 2.76942454,15.6400869 L3.31908795,13.4267318 C1.30482716,12.1457823 0.0604221336,9.94614794 -2.48689958e-14,7.55984799 C-2.48689958e-14,3.38416938 3.99978284,6.75015599e-14 8.93404995,6.75015599e-14 C13.6190879,6.75015599e-14 17.4558306,3.05435396 17.8295983,6.93689468 C17.6144149,6.90377733 17.3975919,6.8823705 17.1800869,6.87276873 C16.9373073,6.88193268 16.6945277,6.90482085 16.4535722,6.94330076 L16.4535939,6.94421281 Z"/>
      <path fill="#FDD50B" d="M13.5998697,11.8207383 C14.0112269,11.7382845 14.4024104,11.5807166 14.754202,11.3535288 C15.0996588,10.9920128 15.5355241,10.7294769 16.0166124,10.5931379 C15.9510464,11.0222479 15.7386453,11.4153225 15.4156352,11.7053203 C15.1453855,12.1175679 14.9511618,12.5756352 14.8412378,13.0556786 C14.8422399,13.7383609 14.2899014,14.2927401 13.6072201,14.2942586 C12.9245388,14.2957709 12.3697445,13.7438493 12.3677102,13.0611693 C12.3656871,12.3784893 12.9171914,11.8232803 13.5998697,11.8207383 L13.5998697,11.8207383 Z"/>
      <path fill="#FF6B06" d="M15.8278827,14.7963084 C16.2364821,15.070228 16.6908795,15.2681216 17.1690988,15.3826276 C17.6693233,15.3826276 18.1202925,15.6839555 18.3117201,16.1461027 C18.5031477,16.6082499 18.3973354,17.1402043 18.0436233,17.4939164 C17.6899112,17.8476286 17.1579567,17.9534409 16.6958096,17.7620133 C16.2336624,17.5705856 15.9323344,17.1196165 15.9323344,16.619392 C15.8535096,16.2075491 15.698134,15.8141456 15.4742671,15.4595874 C15.1158928,15.1102289 14.8571987,14.6715959 14.7248643,14.1889251 C15.1528284,14.2593493 15.5428692,14.4767229 15.8278827,14.8036482 L15.8278827,14.7963084 L15.8278827,14.7963084 Z"/>
    </g>
  </g>
</svg>
