<svg xmlns="http://www.w3.org/2000/svg" width="30" height="55" viewBox="0 0 30 55">
  <path fill="#FF6D56" fill-rule="evenodd" stroke="#FF6D56" d="M25.96,43.48 C24.52,46.6 21.56,51.24 18.36,53 C16.68,53.96 14.76,54.36 12.76,53.96 C9.24,52.36 6.52,49.88 4.6,46.76 C2.28,43.16 1,38.76 0.68,34.44 C0.2,27.4 0.68,20.52 3.24,14.44 C5.08,9.96 8.04,5.88 12.28,2.6 C12.76,2.36 13.24,1.96 13.8,1.56 C14.36,1.24 15,0.92 15.64,0.92 C16.76,0.92 16.92,2.2 16.44,2.84 C16.12,3.24 15.56,3.56 15,3.8 C14.6,4.04 14.2,4.2 13.96,4.52 C17.64,5.96 20.6,8.52 22.84,11.56 C25.96,15.72 27.72,20.76 28.52,25.64 C29.48,31.88 28.52,38.12 25.96,43.48 Z M21.48,13.88 C19.32,10.52 16.28,7.72 12.36,5.88 C10.12,7.8 8.44,10.12 7.24,12.44 C5.32,16.04 4.04,20.28 3.48,24.6 C2.68,30.44 3.32,36.52 5.16,41.72 C6.6,45.64 9.64,49.8 13.64,51.4 C14.92,51.64 16.2,51.32 17.16,50.76 C20.12,48.2 22.2,45.24 23.56,42.04 C25.16,38.44 25.96,34.6 26.2,30.52 C25.96,24.6 24.6,18.68 21.48,13.88 Z"/>
</svg>
