<svg xmlns="http://www.w3.org/2000/svg" width="11" height="55" viewBox="0 0 11 55">
  <path fill="#FF6D56" fill-rule="evenodd" stroke="#FF6D56" d="M9.6,3.16 C9.28,3.4 8.96,3.56 8.72,3.88 C6.08,8.52 5.28,13.88 4.48,19.4 C3.76,24.36 3.44,29.64 3.68,34.84 C3.92,40.76 4.88,46.44 6.8,51.48 C7.2,52.2 7.52,52.92 7.84,53.72 C7.68,54.28 6.88,54.36 6.56,54.12 C4.08,52.76 3.28,50.2 2.64,47.64 C2.4,46.52 2.16,45.48 1.84,44.44 C0.96,39.32 0.64,33.96 0.8,28.6 C1.04,21.56 2.08,14.52 3.84,8.2 C4.4,6.92 4.8,5.48 5.44,4.2 C6.16,2.92 7.04,1.72 8.56,1.08 C9.12,0.92 10.16,1.32 10.4,2.12 C10.32,2.68 10,3 9.6,3.16 Z"/>
</svg>
