<svg xmlns="http://www.w3.org/2000/svg" width="44" height="56" viewBox="0 0 44 56">
  <path fill="#FF6D56" fill-rule="evenodd" stroke="#FF6D56" d="M41.84,34.04 C41.52,34.28 41.28,34.36 40.96,34.52 C37.76,36.12 31.2,39.24 27.6,41.24 C20.16,45.4 13.28,49.4 7.92,52.6 C7.12,53.08 5.28,54.04 4.4,54.68 C3.12,55.08 2.64,53.4 2.88,52.6 C6.08,50.04 9.36,47.24 12.4,44.2 C15.04,41.48 17.6,38.6 19.52,35.64 C22,31.88 23.52,27.88 24,23.56 C24.32,20.68 23.84,18.12 22.56,15.8 C21.2,13.32 19.04,11.16 16.48,9.4 C12.8,6.84 8.88,4.84 4.48,4.04 C4,3.96 3.6,4.04 3.12,4.2 C2.64,4.36 2.16,4.52 1.44,4.28 C1.12,3.64 1.28,3.08 1.6,2.52 L1.92,2.04 C2.8,1.08 4.48,1.24 5.52,1.48 C10.32,2.44 14.8,4.6 18.8,7.64 C21.44,9.64 23.68,12.2 25.12,15.08 C26.64,17.96 27.2,21.32 26.64,24.84 C25.92,29.24 24.08,33.24 21.68,37 C19.68,40.04 17.04,43.08 14.24,45.96 C18.48,43.16 22.32,41.4 27.28,38.44 C31.84,35.64 36.24,33.96 41.28,32.04 C42,31.8 43.04,32.28 42.64,33.24 C42.48,33.64 42.16,33.88 41.84,34.04 Z"/>
</svg>
