<svg xmlns="http://www.w3.org/2000/svg" width="32" height="55" viewBox="0 0 32 55">
  <path fill="#FF6D56" fill-rule="evenodd" stroke="#FF6D56" d="M30.56,33.24 L29.76,36.2 C28.08,39.8 25.76,43.56 22.8,46.84 C19.68,50.28 15.84,53.08 11.6,54.2 C10.88,54.36 9.12,54.12 9.2,52.84 C12.08,51.96 14.72,50.52 17.04,48.68 C19.52,46.76 21.76,44.36 23.6,41.8 C25.84,38.68 27.36,35.16 28.08,31.64 C28.24,31 28.16,29 27.36,28.28 C26,27.08 24,26.44 22,26.28 C19.68,26.12 17.36,26.68 15.44,27.4 C12.72,28.44 10.24,30.28 7.92,32.12 C6.88,32.28 6.32,30.84 6.72,30.04 C9.28,27.48 11.68,24.76 13.6,21.88 C15.12,19.64 16.16,17.16 16.8,14.52 C17.2,12.92 17.12,11.32 16.56,9.8 C16,8.12 14.96,6.6 13.44,5.56 C11.76,4.44 9.52,3.72 7.36,3.64 C5.76,3.56 4.24,3.88 2.8,4.52 C2.56,4.68 2.32,4.92 2.08,5 C1.84,5.16 1.52,5.24 1.2,5.08 C0.64,4.68 0.72,3.96 1.12,3.56 C2.08,2.2 3.44,1.56 4.96,1.24 C7.2,0.84 9.76,1.32 11.68,1.88 C14.24,2.68 17.2,4.52 18.48,7.32 C19.6,9.8 19.76,12.44 19.36,14.84 C18.64,18.68 16.56,22.28 14,25.32 C16.32,24.12 19.28,23.4 22.08,23.56 C24.64,23.64 27.12,24.44 29.12,26.04 C30.48,27.08 30.88,28.52 30.96,30.04 C30.96,31.08 30.8,32.2 30.56,33.24 Z"/>
</svg>
