<svg xmlns="http://www.w3.org/2000/svg" width="43" height="56" viewBox="0 0 43 56">
  <path fill="#FF6D56" fill-rule="evenodd" stroke="#FF6D56" d="M26.56,31.56 C26.4,33.24 26.4,34.92 26.48,36.68 L26.72,42.2 C26.88,46.36 26.56,50.68 24.8,54.12 C24.72,54.36 24.48,54.44 24.24,54.52 C24.08,54.52 23.68,54.52 23.68,54.12 C24.4,50.28 24.32,46.44 24.08,42.52 C23.92,39 23.68,35.48 23.92,31.88 C21.04,31.88 18.24,31.48 15.68,30.44 C13.12,29.4 10.64,27.64 8.64,25.48 C6.16,22.76 4.24,19 3.04,15.56 C1.68,11.4 1.12,7 1.52,2.36 C1.68,1.88 2.32,1.4 2.64,1.16 C3.12,1.08 3.76,1.48 3.92,1.96 C3.84,6.36 4.4,10.84 5.68,14.76 C6.56,17.4 7.68,19.8 9.28,21.88 C11.28,24.52 13.92,26.68 17.28,28.2 C19.28,29.16 21.6,29.4 23.92,29.4 C24.48,23.48 24.56,17.08 25.84,11.16 C26.4,8.76 27.76,5.88 30.48,5 C31.92,4.6 33.6,4.68 34.8,5.48 C35.44,5.8 34.72,6.52 34.4,6.52 C33.44,6.28 32.56,6.44 31.76,6.76 C30.8,7.24 29.84,8.12 29.2,9.08 C28.4,11.08 28,13.24 27.68,15.4 C27.36,17.64 27.28,19.88 27.12,22.12 C26.96,23.96 26.72,27.4 26.64,29.24 C32.08,28.84 36.96,26.68 41.68,24.2 C42.32,23.64 42.64,24.76 42.4,25.16 C37.76,28.68 32.48,30.92 26.56,31.56 Z"/>
</svg>
