<svg xmlns="http://www.w3.org/2000/svg" width="38" height="55" viewBox="0 0 38 55">
  <path fill="#FF6D56" fill-rule="evenodd" stroke="#FF6D56" d="M36.52,3.24 C35.8,3.4 35.16,3.4 34.52,3.4 C33.96,3.32 33.32,3.4 32.76,3.48 C29.48,4.2 26.36,5.32 23.48,7 C20.28,8.92 17.24,11.4 14.6,14.36 C13.96,17 13.56,20.04 14.04,22.84 C14.36,24.76 15.08,26.6 16.6,28.04 C21.4,32.68 26.84,35.96 32.52,38.6 C33,38.92 33.48,39.56 33.08,40.2 C27.4,45.64 20.84,50.12 13.96,53.16 C11.88,54.04 9.08,54.44 6.52,53.96 C5.08,53.64 3.64,52.92 2.6,51.88 C2.12,51.4 1.64,50.92 1.32,50.36 C1,49.8 0.84,49.16 1.16,48.28 C1.72,48.44 1.96,48.68 2.2,48.92 L2.76,49.64 C3.72,50.52 4.76,51.08 6.04,51.48 C7.72,51.96 9.72,51.96 11.4,51.4 C14.28,50.52 17,49.08 19.64,47.48 C23.08,45.32 26.28,42.68 29.48,39.96 C26.52,38.2 22.76,36.2 19.4,33.8 C16.44,31.72 13.96,29.24 12.44,26.12 C11.32,23.8 10.76,21.16 11.24,18.12 C11.88,14.12 13,9.4 14.6,5.96 C15.4,5.24 17.48,5.56 16.84,7.16 C16.6,7.64 16.12,8.92 15.88,9.8 C18.04,7.96 20.36,6.2 22.68,4.84 C25.8,2.92 29.16,1.4 32.84,0.76 C33.56,0.84 34.36,0.76 35.08,0.84 C35.8,1 36.44,1.24 36.84,2.04 C37.24,2.44 36.84,3 36.52,3.24 Z"/>
</svg>
