<svg xmlns="http://www.w3.org/2000/svg" width="30" height="55" viewBox="0 0 30 55">
  <path fill="#FF6D56" fill-rule="evenodd" stroke="#FF6D56" d="M25.16,40.76 C25.64,38.76 25.56,36.6 24.92,34.68 C24.28,32.76 23,30.84 21.16,29.8 C20.2,29.32 19.32,29 18.12,29 C16.44,28.92 14.68,29.48 13.24,30.28 C10.68,31.72 6.52,36.12 5.48,38.84 C4.84,40.44 5,42.44 5.16,43.64 C5.48,45.56 6.36,47.32 7.24,49 C8.76,50.68 10.6,51.4 12.92,51.32 C15.48,51.24 17.88,50.28 19.96,48.76 C22.52,46.76 24.44,43.96 25.16,40.76 Z M24.84,48.12 C21.64,52.04 17.16,54.76 12.04,54.36 C8.68,54.12 5.4,52.44 3.64,49.24 C1.72,45.88 1.4,41.56 1.32,37.72 C1.24,33.72 2.36,26.76 4.12,20.2 C5.88,13.56 8.28,7.32 10.6,4.76 C12.12,3.16 13.8,1.56 15.64,1.32 C18.12,0.92 20.92,1.64 23,3.32 C25.24,5.16 26.92,8.2 27.24,10.84 C27.24,11.8 25.96,12.28 25.4,11.08 C24.68,8.76 22.6,6.44 20.36,5.16 C19.24,4.52 18.28,4.2 17.32,4.2 C15.96,4.28 14.76,4.84 13.32,6.2 C11.48,8.04 9.4,13.32 7.64,19.4 C6.2,24.52 5,30.12 4.52,34.6 C7,30.28 12.04,26.36 17.16,26.04 C20.6,25.8 23.48,27.24 25.48,29.48 C27.96,32.28 29.08,36.44 28.36,40.44 C27.88,43.24 26.6,45.96 24.84,48.12 Z"/>
</svg>
