<svg xmlns="http://www.w3.org/2000/svg" width="29" height="55" viewBox="0 0 29 55">
  <path fill="#FF6D56" fill-rule="evenodd" stroke="#FF6D56" d="M27.4,11.96 L26.52,15.32 L24.2,25.08 C23.24,29.16 22.44,33.48 21.72,37.64 C20.84,42.76 19.96,47.88 18.44,52.68 C18.04,53.24 17.64,53.88 17,54.12 C16.6,54.2 15.48,53.8 15.64,53 C16.04,51.4 17,48.04 17.48,45.8 C19.32,36.76 20.6,29.8 21.64,24.28 C22.2,21.48 23,18.84 23.72,16.12 C24.44,13.4 25,10.68 25.24,7.8 C25.32,6.2 24.04,4.6 22.52,3.96 C20.28,3.48 17.96,3.48 15.72,3.8 C12.6,4.28 9.4,5.08 6.6,6.28 C6.12,6.36 5.56,6.6 5.16,6.84 C4.6,7.08 4.04,7.24 3.56,7.4 C2.84,7.48 2.12,7.48 1.48,6.92 C1,6.6 0.92,5.88 1.4,5.64 C5.4,3.64 9.56,2.04 14.12,1.32 C16.36,0.92 18.68,0.76 21.16,0.92 C23.32,1 25.32,2.12 26.6,3.8 C27.64,5.16 28.04,6.76 27.96,8.36 C27.96,9.56 27.72,10.76 27.4,11.96 Z"/>
</svg>
