<svg xmlns="http://www.w3.org/2000/svg" width="30" height="55" viewBox="0 0 30 55">
  <path fill="#FF6D56" fill-rule="evenodd" stroke="#FF6D56" d="M26.92,51 C25.8,52.04 24.52,52.76 23.16,53.24 C21.64,53.72 20.04,53.96 18.36,54.04 C16.68,54.12 15,54.04 13.32,54.04 C10.36,53.56 6.92,52.76 4.36,50.92 C2.76,49.8 1.48,48.2 0.76,46.04 C0.52,44.44 0.6,43 1,41.48 C1.64,38.92 3.08,36.52 4.36,34.28 C6.36,30.68 9.32,27.64 12.6,25.08 C8.84,20.6 5.88,15.8 3.64,10.68 C2.6,8.2 3.08,5.32 4.92,3.4 C6.44,1.88 8.36,1 10.52,0.76 C12.76,0.52 15.16,0.84 17.16,1.64 C19.64,2.68 22.52,5 23.4,7.72 C23.96,9.56 23.64,11.32 23.08,12.84 C22.44,14.44 21.48,15.96 20.68,17.48 C20.12,18.44 19.16,19.96 18.44,21 C19.64,20.44 20.84,19.8 22.12,19.32 C23.64,18.76 25.24,18.28 27.08,18.12 C27.48,18.12 27.48,18.52 27.48,18.68 C27.48,18.84 27.4,19.08 27.24,19.24 C23.56,20.6 19.64,22.92 16.36,25.4 C21.72,31.08 26.2,37.24 28.44,44.28 C29.24,46.68 28.28,49.08 26.92,51 Z M16.2,4.28 C14.76,3.64 12.92,3.24 11.16,3.4 C9.72,3.56 8.36,4.04 7.32,5 C6.12,6.12 5.72,7.8 6.2,9.48 C8.2,14.04 10.6,18.44 13.96,22.44 C15.64,20.44 17.24,18.28 18.44,16.04 C19,14.92 19.72,13.72 20.2,12.52 C20.76,11.24 21,9.96 20.6,8.52 C20.12,6.6 18.04,5.08 16.2,4.28 Z M14.28,27.16 C10.52,30.28 7,34.12 5.16,38.36 C4.6,39.72 3.96,41.08 3.56,42.52 C3.24,43.56 3.16,44.68 3.56,45.88 C4.28,47.4 5.56,48.52 6.92,49.32 C9.16,50.52 11.8,51 14.36,51.32 C15.64,51.32 16.84,51.32 18.12,51.24 C19.4,51.24 20.6,51 21.72,50.68 C22.92,50.28 23.88,49.88 24.84,49 C26.28,47.4 26.04,44.76 25.16,42.84 C22.44,37.16 18.76,31.88 14.28,27.16 Z"/>
</svg>
