<svg xmlns="http://www.w3.org/2000/svg" width="30" height="56" viewBox="0 0 30 56">
  <path fill="#FF6D56" fill-rule="evenodd" stroke="#FF6D56" d="M27.12,16.24 C26.56,17.36 25.92,18.32 25.36,19.44 C25.44,20.88 25.44,22.4 25.28,23.84 C25.2,25.28 25.04,26.72 24.88,28.24 C24,36.96 22.88,46.4 20.32,54.8 C19.92,55.6 18.96,55.44 18.72,54.72 C18.4,53.76 18.72,52.48 18.96,51.76 C20.8,42.72 21.84,33.12 22.56,23.68 L19.52,25.92 C18.24,26.88 16.8,27.68 15.44,28.24 C12.48,29.36 9.36,29.76 6.08,28.24 C2.88,26.72 0.96,23.36 1.2,19.76 C1.52,16.16 3.12,12.72 5.44,9.76 C8,6.48 11.52,3.76 15.12,2.24 C17.36,1.28 19.92,1.2 22.24,1.84 C24,2.4 25.68,3.44 26.88,5.04 C28.48,7.2 28.88,10.16 28.4,12.8 C28.16,14 27.68,15.2 27.12,16.24 Z M21.44,4.48 C19.92,4 18.08,3.92 16.4,4.72 C13.28,6.16 10.16,8.48 7.84,11.36 C5.52,14.16 4,17.52 4.08,21.04 C4.08,23.28 5.84,25.28 7.84,26 C10.08,26.88 12.4,26.64 14.4,25.84 C16.64,25.04 18.64,23.52 20.4,21.84 C22.8,19.6 24.64,16.96 25.44,14 C26,12.08 26.08,10 25.52,8 C24.8,6.32 23.28,5.12 21.44,4.48 Z"/>
</svg>
