<svg xmlns="http://www.w3.org/2000/svg" xmlns:xlink="http://www.w3.org/1999/xlink" fill="none" version="1.1" width="25.921995162963867" height="26" viewBox="0 0 25.921995162963867 26"><g><path d="M2.145,0L0.013,1.794C3.809,4.628,7.345,7.878,10.452,11.128C5.694,15.925,1.963,20.644,0,22.542L4.056,25.935C5.499,22.958,8.632,18.447,12.831,13.715C17.03,18.473,20.176,23.01,21.619,26Q25.571,21.801,25.922,22.451C24.401,20.735,20.683,15.743,15.691,10.634C18.551,7.696,21.762,4.784,25.194,2.223L24.258,0.481001C20.371,2.418,16.666,5.291,13.338,8.346C9.984,5.161,6.188,2.132,2.145,0Z" fill="#F56C6C" fill-opacity="1"/></g></svg>