<?xml version="1.0" standalone="no"?><!DOCTYPE svg PUBLIC "-//W3C//DTD SVG 1.1//EN" "http://www.w3.org/Graphics/SVG/1.1/DTD/svg11.dtd"><svg t="1682588318101" class="icon" viewBox="0 0 1024 1024" version="1.1" xmlns="http://www.w3.org/2000/svg" p-id="14372" xmlns:xlink="http://www.w3.org/1999/xlink" width="200" height="200"><path d="M832 0A192 192 0 0 1 1024 192v640A192 192 0 0 1 832 1024h-640A192 192 0 0 1 0 832v-640A192 192 0 0 1 192 0h640z m1.536 96H192a96 96 0 0 0-96 94.464V832c0 52.48 42.154667 95.146667 94.464 96H832a96 96 0 0 0 96-94.464V192a96 96 0 0 0-94.464-96z"  fill-opacity=".65" p-id="14373"></path><path d="M239.274667 535.04h56.576c16.64 0 25.088 10.581333 25.088 24.490667 0 14.250667-8.106667 24.149333-25.088 24.149333h-56.576v-48.64z m0-92.501333h54.272c13.226667 0 20.650667 8.789333 20.650666 20.053333 0 11.349333-7.424 19.029333-21.333333 19.029333h-53.589333v-39.082666zM173.141333 384v256h122.368c43.434667-0.341333 91.904-17.578667 91.904-75.008a68.266667 68.266667 0 0 0-32.853333-59.562667c20.650667-10.24 26.112-30.378667 26.112-49.749333 0-48.981333-38.656-71.68-86.186667-71.68H173.226667zM474.368 640h66.816V443.648h69.461333V384H405.248v59.648h69.12V640zM700.074667 384h-57.002667v256h67.84v-81.92l-1.024-55.978667L808.874667 640h56.917333v-256h-67.413333v87.808c0.341333 9.813333 0.341333 21.504 2.048 52.224L700.074667 384z"  fill-opacity=".65" p-id="14374"></path></svg>
