<?xml version="1.0" standalone="no"?><!DOCTYPE svg PUBLIC "-//W3C//DTD SVG 1.1//EN"
        "http://www.w3.org/Graphics/SVG/1.1/DTD/svg11.dtd">
<svg xmlns:xlink="http://www.w3.org/1999/xlink" t="1702181743657" class="icon" viewBox="0 0 1024 1024" version="1.1" xmlns="http://www.w3.org/2000/svg"
     p-id="3429" width="200" height="200">
    <path d="M511.264243 208.447473c106.463754 0 193.121416 86.605473 193.121416 193.121416 0 51.557236-20.1182 100.072183-56.585763 136.487557L511.264243 674.592099 374.72859 538.056446c-36.46654-36.467563-56.58474-84.930321-56.58474-136.487557C318.14385 295.052946 404.800489 208.447473 511.264243 208.447473M511.264243 156.055219c-135.539976 0-245.51367 109.921505-245.51367 245.51367 0 67.798129 27.453259 129.152499 71.935356 173.578314l173.578314 173.530219 173.578314-173.582407c44.482097-44.429909 71.935356-105.780185 71.935356-173.578314C756.777913 265.924535 646.804219 156.055219 511.264243 156.055219L511.264243 156.055219 511.264243 156.055219zM511.264243 156.055219"
          fill="#272636" p-id="3430"></path>
    <path d="M776.532839 622.930485l-38.406728 37.778418c25.151843 15.977903 40.029692 33.845853 40.029692 51.030234 0 48.726771-114.110921 103.161544-266.839371 103.161544-152.724357 0-266.839371-54.434773-266.839371-103.161544 0-18.756179 17.292851-38.35454 46.944172-55.43045l-34.788318-40.397059c-40.655955 26.038026-64.548108 58.995649-64.548108 95.77532 0 88.647993 137.219221 155.554822 319.231625 155.554822 182.016497 0 319.231625-66.855664 319.231625-155.554822C830.495868 678.205393 810.797223 647.766127 776.532839 622.930485L776.532839 622.930485zM776.532839 622.930485"
          fill="#272636" p-id="3431"></path>
    <path d="M458.871989 386.323673c0 13.718443 5.644557 27.348881 15.3455 37.046754 9.697873 9.700943 23.332405 15.3455 37.046754 15.3455 13.718443 0 27.349905-5.644557 37.046754-15.3455 9.701966-9.697873 15.3455-23.328311 15.3455-37.046754 0-13.715373-5.643534-27.349905-15.3455-37.046754-9.69685-9.697873-23.328311-15.346523-37.046754-15.346523-13.71435 0-27.348881 5.64865-37.046754 15.346523C464.516546 358.973768 458.871989 372.6083 458.871989 386.323673L458.871989 386.323673zM458.871989 386.323673"
          fill="#272636" p-id="3432"></path>
</svg>
