<?xml version="1.0" standalone="no"?><!DOCTYPE svg PUBLIC "-//W3C//DTD SVG 1.1//EN"
        "http://www.w3.org/Graphics/SVG/1.1/DTD/svg11.dtd">
<svg xmlns:xlink="http://www.w3.org/1999/xlink" t="1702181881062" class="icon" viewBox="0 0 1024 1024" version="1.1"
     xmlns="http://www.w3.org/2000/svg" p-id="11125" width="200" height="200">
    <path d="M897.427256 249.003144 126.57172 249.003144c-34.673707 0-62.73174-28.088732-62.73174-62.73174s28.058033-62.73174 62.73174-62.73174l770.855536 0c34.673707 0 62.73174 28.088732 62.73174 62.73174S932.101987 249.003144 897.427256 249.003144z"
          fill="#231815" p-id="11126"></path>
    <path d="M897.427256 574.73174 126.57172 574.73174c-34.673707 0-62.73174-28.088732-62.73174-62.73174s28.058033-62.73174 62.73174-62.73174l770.855536 0c34.673707 0 62.73174 28.088732 62.73174 62.73174S932.101987 574.73174 897.427256 574.73174z"
          fill="#231815" p-id="11127"></path>
    <path d="M897.427256 900.460336 126.57172 900.460336c-34.673707 0-62.73174-28.088732-62.73174-62.73174 0-34.643008 28.058033-62.73174 62.73174-62.73174l770.855536 0c34.673707 0 62.73174 28.088732 62.73174 62.73174C960.16002 872.371604 932.101987 900.460336 897.427256 900.460336z"
          fill="#231815" p-id="11128"></path>
</svg>
