<?xml version="1.0" standalone="no"?><!DOCTYPE svg PUBLIC "-//W3C//DTD SVG 1.1//EN" "http://www.w3.org/Graphics/SVG/1.1/DTD/svg11.dtd"><svg t="1681906052035" class="icon" viewBox="0 0 1024 1024" version="1.1" xmlns="http://www.w3.org/2000/svg" p-id="8113" xmlns:xlink="http://www.w3.org/1999/xlink" width="48" height="48"><path d="M405.199339 496.259174H180.088595a79.685818 79.685818 0 0 1-79.550413-79.550414V201.076364a79.685818 79.685818 0 0 1 79.550413-79.550414h225.110744a79.685818 79.685818 0 0 1 79.550413 79.550414v215.632396a79.685818 79.685818 0 0 1-79.550413 79.550414zM180.088595 187.87438a13.540496 13.540496 0 0 0-13.540496 13.540496v215.632397a13.540496 13.540496 0 0 0 13.540496 13.540496h225.110744a13.540496 13.540496 0 0 0 13.540496-13.540496V201.414876a13.540496 13.540496 0 0 0-13.540496-13.540496z"  p-id="8114"></path><path d="M239.666777 378.795372a32.869554 32.869554 0 0 1-32.835703-32.835703V276.564628a32.835702 32.835702 0 1 1 65.671405 0v69.395041a32.869554 32.869554 0 0 1-32.835702 32.835703zM840.187769 496.259174h-225.110744a79.685818 79.685818 0 0 1-79.550413-79.550414V201.076364a79.685818 79.685818 0 0 1 79.550413-79.550414h225.110744a79.685818 79.685818 0 0 1 79.550413 79.550414v215.632396a79.888926 79.888926 0 0 1-79.550413 79.550414z m-225.449257-308.384794a13.540496 13.540496 0 0 0-13.540495 13.540496v215.632397a13.540496 13.540496 0 0 0 13.540495 13.540496h225.110744a13.540496 13.540496 0 0 0 13.540496-13.540496V201.414876a13.540496 13.540496 0 0 0-13.540496-13.540496z" p-id="8115"></path><path d="M674.316694 378.795372a32.869554 32.869554 0 0 1-32.835702-32.835703V276.564628a32.835702 32.835702 0 1 1 65.671405 0v69.395041a32.666446 32.666446 0 0 1-32.835703 32.835703zM405.199339 920.076694H180.088595a79.685818 79.685818 0 0 1-79.550413-79.550413v-215.632397a79.685818 79.685818 0 0 1 79.550413-79.550413h225.110744a79.685818 79.685818 0 0 1 79.550413 79.550413v215.632397a79.888926 79.888926 0 0 1-79.550413 79.550413z m-225.110744-308.384793a13.540496 13.540496 0 0 0-13.540496 13.540496v215.632396a13.540496 13.540496 0 0 0 13.540496 13.540496h225.110744a13.540496 13.540496 0 0 0 13.540496-13.540496v-215.632396a13.540496 13.540496 0 0 0-13.540496-13.540496z"  p-id="8116"></path><path d="M239.666777 802.27438a32.869554 32.869554 0 0 1-32.835703-32.835702v-69.395042a32.835702 32.835702 0 1 1 65.671405 0v69.395042a32.869554 32.869554 0 0 1-32.835702 32.835702zM840.187769 920.076694h-225.110744a79.685818 79.685818 0 0 1-79.550413-79.550413v-215.632397a79.685818 79.685818 0 0 1 79.550413-79.550413h225.110744a79.685818 79.685818 0 0 1 79.550413 79.550413v215.632397a80.125884 80.125884 0 0 1-79.550413 79.550413z m-225.449257-308.384793a13.540496 13.540496 0 0 0-13.540495 13.540496v215.632396a13.540496 13.540496 0 0 0 13.540495 13.540496h225.110744a13.540496 13.540496 0 0 0 13.540496-13.540496v-215.632396a13.540496 13.540496 0 0 0-13.540496-13.540496z"  p-id="8117"></path><path d="M674.316694 802.27438a32.869554 32.869554 0 0 1-32.835702-32.835702v-69.395042a32.835702 32.835702 0 1 1 65.671405 0v69.395042a32.666446 32.666446 0 0 1-32.835703 32.835702z" p-id="8118"></path></svg>
