<?xml version="1.0" standalone="no"?><!DOCTYPE svg PUBLIC "-//W3C//DTD SVG 1.1//EN" "http://www.w3.org/Graphics/SVG/1.1/DTD/svg11.dtd"><svg t="1681905777636" class="icon" viewBox="0 0 1024 1024" version="1.1" xmlns="http://www.w3.org/2000/svg" p-id="1363" xmlns:xlink="http://www.w3.org/1999/xlink" width="48" height="48"><path d="M871.319398 559.104c35.674839 0 64.594581 28.710538 64.59458 64.137634v248.53471c0 35.421591-28.919742 64.137634-64.59458 64.137634H152.680602C117.005763 935.913978 88.086022 907.197935 88.086022 871.776344v-248.53471c0-35.427097 28.919742-64.137634 64.59458-64.137634h718.638796z m3.639054 60.950022H154.579957v249.366021h720.378495v-249.366021zM351.298065 692.091871a52.642409 52.642409 0 1 1 0 105.290323 52.642409 52.642409 0 0 1 0-105.290323z m160.701935 0a52.642409 52.642409 0 1 1 0 105.290323 52.642409 52.642409 0 0 1 0-105.290323z m160.701935 0a52.642409 52.642409 0 1 1 0 105.290323 52.642409 52.642409 0 0 1 0-105.290323zM871.319398 88.086022C906.994237 88.086022 935.913978 117.027785 935.913978 152.735656v258.598538c0 35.702366-28.919742 64.649634-64.59458 64.649634H152.680602C117.005763 475.983828 88.086022 447.036559 88.086022 411.334194V152.735656C88.086022 117.027785 117.005763 88.086022 152.680602 88.086022h718.638796z m3.639054 60.955526H154.579957v260.442839h720.378495V149.041548zM351.298065 226.617806a52.642409 52.642409 0 1 1 0 105.290323 52.642409 52.642409 0 0 1 0-105.290323z m160.701935 0a52.642409 52.642409 0 1 1 0 105.290323 52.642409 52.642409 0 0 1 0-105.290323z m160.701935 0a52.642409 52.642409 0 1 1 0 105.290323 52.642409 52.642409 0 0 1 0-105.290323z"  p-id="1364"></path></svg>
