<?xml version="1.0" standalone="no"?><!DOCTYPE svg PUBLIC "-//W3C//DTD SVG 1.1//EN" "http://www.w3.org/Graphics/SVG/1.1/DTD/svg11.dtd"><svg t="1681904978966" class="icon" viewBox="0 0 1024 1024" version="1.1" xmlns="http://www.w3.org/2000/svg" p-id="22625" xmlns:xlink="http://www.w3.org/1999/xlink" width="48" height="48"><path d="M465.463054 170.666667c135.38271 0 257.613075 55.064774 344.041978 143.426064l69.505377-72.670968a33.032258 33.032258 0 0 1 48.689548 44.637592l-0.946925 1.029505-74.295054 77.686366c54.822538 74.97772 87.062022 166.598194 87.062022 265.590365a33.032258 33.032258 0 0 1-66.064516 0c0-80.130753-24.840258-154.723097-67.517936-216.950365L568.154839 662.021505a32.905634 32.905634 0 0 1-24.174108 12.34856l-1.701161 0.038537a32.922151 32.922151 0 0 1-25.765161-12.249462L393.43071 534.67114 147.406452 785.617204a33.032258 33.032258 0 0 1-48.133506-45.232172l0.957936-1.012989L368.19957 466.030108a32.900129 32.900129 0 0 1 22.863828-11.742968l2.036989-0.088086 1.690151 0.016516-0.055054-0.005505a32.916645 32.916645 0 0 1 24.438365 12.00172l122.995613 127.399914 221.640947-231.737807C689.37772 284.89772 583.31114 236.731183 465.463054 236.731183 338.723785 236.731183 221.701505 292.803441 144.802409 386.961892a33.032258 33.032258 0 1 1-51.166968-41.785806C183.020731 235.723699 318.794323 170.666667 465.468559 170.666667z" p-id="22626"></path></svg>
