<?xml version="1.0" standalone="no"?><!DOCTYPE svg PUBLIC "-//W3C//DTD SVG 1.1//EN" "http://www.w3.org/Graphics/SVG/1.1/DTD/svg11.dtd"><svg t="1681905434545" class="icon" viewBox="0 0 1024 1024" version="1.1" xmlns="http://www.w3.org/2000/svg" p-id="23066" xmlns:xlink="http://www.w3.org/1999/xlink" width="48" height="48"><path d="M589.44 463.872l-40.512 285.248C564.928 760.768 576 778.688 576 800c0 35.392-28.672 64-64 64s-64-28.608-64-64c0-27.904 17.984-50.944 42.752-59.776l67.52-283.776L589.44 463.872zM929.152 413.376l-110.848 74.688C826.304 516.16 832 545.344 832 576c0 50.88-12.992 98.368-34.112 141.12l105.856 75.968C939.52 728.768 960 654.784 960 576 960 518.592 948.8 463.808 929.152 413.376zM218.304 238.272C123.968 320.384 64 441.088 64 576c0 78.72 20.48 152.704 56.128 217.024l105.92-75.968C204.992 674.304 192 626.88 192 576c0-90.688 38.08-172.096 98.624-230.336L218.304 238.272zM512 128C422.592 128 339.456 154.496 269.504 199.616l71.744 106.56C390.72 274.816 449.024 256 512 256c122.816 0 228.096 69.952 281.792 171.456l107.584-72.512C824.32 219.52 678.976 128 512 128z" p-id="23067"></path></svg>
