<?xml version="1.0" standalone="no"?><!DOCTYPE svg PUBLIC "-//W3C//DTD SVG 1.1//EN" "http://www.w3.org/Graphics/SVG/1.1/DTD/svg11.dtd"><svg t="1709612613434" class="icon" viewBox="0 0 1024 1024" version="1.1" xmlns="http://www.w3.org/2000/svg" p-id="7055" xmlns:xlink="http://www.w3.org/1999/xlink" width="32" height="32"><path d="M818.230723 995.209464C748.611878 1007.485145 651.427198 1008.205672 533.962121 966.313839 402.085351 919.288815 288.376248 809.688816 245.087449 764.141098L245.081347 764.142174C202.049364 718.780696 97.646332 598.774482 57.738363 464.387456-5.280055 252.148908 63.356667 111.361534 85.89909 73.261657 98.470399 52.008208 117.730772 25.916165 139.565892 18.864934 171.119554 6.044568 207.872921 15.619839 248.871301 47.328748 277.887807 69.772855 303.13458 98.411885 318.219083 115.517424 320.229142 117.804164 322.043911 119.861096 323.630807 121.624759L324.903048 123.052574C347.214249 147.88823 415.104217 223.46599 390.103697 299.740684L389.371799 301.726986C383.661809 315.743354 376.679414 329.508444 369.923276 342.808333 350.890379 380.288128 332.922185 415.685189 343.30557 454.384094 355.438575 499.551686 407.870891 563.850191 431.704288 590.068331 455.740682 614.297796 515.354135 668.099202 559.919473 682.686649 598.104161 695.184226 634.565182 679.273887 673.167649 662.434824 686.878266 656.448739 701.056224 650.265743 715.415903 645.363113L717.441513 644.74799C793.214687 624.665307 860.022029 692.404766 885.166876 717.910991 886.463323 719.226323 887.631799 720.408192 888.657162 721.427812 972.202901 804.755598 1003.767042 866.189318 985.064668 909.125954 977.070032 930.737596 949.544523 948.683676 927.338821 960.119987 910.060354 969.021507 872.53791 985.627353 818.229645 995.203366L818.230723 995.209464 818.230723 995.209464ZM288.724892 722.142921C328.701702 764.264436 434.444953 866.630818 554.450625 909.422313 669.505609 950.448097 761.621461 945.272317 818.643142 933.715449 883.829109 920.491245 921.240395 895.383803 928.661814 886.806021L929.444417 885.164361C929.500282 885.038747 933.583707 871.110377 903.475197 829.820772 881.89671 800.220348 854.690531 773.085707 845.752815 764.172495 844.624747 763.041382 843.336767 761.738399 841.906675 760.29312 823.651317 741.774934 775.394255 692.827558 733.895535 702.910639 722.248758 706.949874 710.181373 712.214618 697.429416 717.778746 652.289412 737.47555 601.132624 759.793565 540.946323 740.101186 481.334411 720.590645 414.191282 657.88319 391.618361 635.595177L391.452375 635.752792C391.065947 635.345293 389.739005 633.928381 387.651062 631.635242 385.538974 629.504906 384.245042 628.153896 383.864212 627.756735L384.030486 627.607878C362.461082 603.425344 301.029175 530.719046 284.751086 470.071694 268.376423 409.076463 293.588377 359.412721 315.842162 315.586893 322.128565 303.205339 328.074044 291.487884 332.773233 280.131112 341.494428 251.557541 323.649836 212.290577 279.724492 163.389745L278.398422 161.91354C276.720017 160.037666 274.800243 157.863353 272.663576 155.436618 258.998732 139.945552 236.132008 114.007433 211.669914 95.085031 190.015631 78.335128 171.436429 70.832563 161.949611 75.004324L159.20249 76.216012C149.985357 83.530006 123.045349 119.2973 106.299507 182.913844 91.532429 239.012956 81.209747 330.393734 115.883964 447.180209 151.927968 568.559531 248.309058 679.458343 288.661015 722.066106L288.661015 722.066106C288.66209 722.072207 288.676446 722.08226 288.677736 722.08958L288.736376 722.150964 288.724892 722.142921 288.724892 722.142921Z" fill="#272636" p-id="7056"></path></svg>