<?xml version="1.0" standalone="no"?><!DOCTYPE svg PUBLIC "-//W3C//DTD SVG 1.1//EN" "http://www.w3.org/Graphics/SVG/1.1/DTD/svg11.dtd"><svg t="1681907523732" class="icon" viewBox="0 0 1024 1024" version="1.1" xmlns="http://www.w3.org/2000/svg" p-id="22319" xmlns:xlink="http://www.w3.org/1999/xlink" width="48" height="48"><path d="M832 85.333333h-640A106.666667 106.666667 0 0 0 85.333333 192V832.426667C85.333333 890.88 133.12 938.666667 192 938.666667h640a106.666667 106.666667 0 0 0 106.666667-106.666667v-640A106.666667 106.666667 0 0 0 832 85.333333zM128 192C128 156.586667 156.586667 128 192 128h640c35.413333 0 64 28.586667 64 64v96H128V192z m768 640c0 35.413333-28.586667 64-64 64h-640c-35.413333 0-64-28.586667-64-64V330.666667h768V832z"  p-id="22320"></path><path d="M352 450.133333h-85.333333c-11.946667 0-21.333333 9.386667-21.333334 21.333334s9.386667 21.333333 21.333334 21.333333h85.333333c11.946667 0 21.333333-9.386667 21.333333-21.333333s-9.386667-21.333333-21.333333-21.333334zM554.666667 450.133333h-85.333334c-11.946667 0-21.333333 9.386667-21.333333 21.333334s9.386667 21.333333 21.333333 21.333333h85.333334c11.946667 0 21.333333-9.386667 21.333333-21.333333s-9.386667-21.333333-21.333333-21.333334zM757.333333 450.133333h-85.333333c-11.946667 0-21.333333 9.386667-21.333333 21.333334s9.386667 21.333333 21.333333 21.333333h85.333333c11.946667 0 21.333333-9.386667 21.333334-21.333333s-9.386667-21.333333-21.333334-21.333334zM352 592.213333h-85.333333c-11.946667 0-21.333333 9.386667-21.333334 21.333334s9.386667 21.333333 21.333334 21.333333h85.333333c11.946667 0 21.333333-9.386667 21.333333-21.333333s-9.386667-21.333333-21.333333-21.333334zM554.666667 592.213333h-85.333334c-11.946667 0-21.333333 9.386667-21.333333 21.333334s9.386667 21.333333 21.333333 21.333333h85.333334c11.946667 0 21.333333-9.386667 21.333333-21.333333s-9.386667-21.333333-21.333333-21.333334zM757.333333 592.213333h-85.333333c-11.946667 0-21.333333 9.386667-21.333333 21.333334s9.386667 21.333333 21.333333 21.333333h85.333333c11.946667 0 21.333333-9.386667 21.333334-21.333333s-9.386667-21.333333-21.333334-21.333334zM352 733.866667h-85.333333c-11.946667 0-21.333333 9.386667-21.333334 21.333333s9.386667 21.333333 21.333334 21.333333h85.333333c11.946667 0 21.333333-9.386667 21.333333-21.333333s-9.386667-21.333333-21.333333-21.333333zM554.666667 733.866667h-85.333334c-11.946667 0-21.333333 9.386667-21.333333 21.333333s9.386667 21.333333 21.333333 21.333333h85.333334c11.946667 0 21.333333-9.386667 21.333333-21.333333s-9.386667-21.333333-21.333333-21.333333zM757.333333 733.866667h-85.333333c-11.946667 0-21.333333 9.386667-21.333333 21.333333s9.386667 21.333333 21.333333 21.333333h85.333333c11.946667 0 21.333333-9.386667 21.333334-21.333333s-9.386667-21.333333-21.333334-21.333333z" p-id="22321"></path></svg>
