<?xml version="1.0" standalone="no"?><!DOCTYPE svg PUBLIC "-//W3C//DTD SVG 1.1//EN"
        "http://www.w3.org/Graphics/SVG/1.1/DTD/svg11.dtd">
<svg t="1684408183756" class="icon" viewBox="0 0 1024 1024" version="1.1" xmlns="http://www.w3.org/2000/svg"
     p-id="3738" width="32" height="32">
    <path d="M287.928082 575.856036a287.928018 287.928018 0 0 0 0-575.856036c-158.68033 0-287.928018 129.247688-287.928018 287.928018a287.928018 287.928018 0 0 0 287.928018 287.928018z m-158.68033-326.95826c3.1992-8.317921 10.237441-14.076481 18.555361-15.356161l83.179205-12.156961 36.470883-75.501125c3.83904-7.67808 11.517121-12.796801 20.474881-12.796801s17.275681 5.11872 21.114721 12.796801l36.470883 75.501125 83.179205 12.156961c8.317921 1.27968 15.356161 7.03824 18.555361 15.356161 2.55936 7.67808 0.63984 16.635841-5.75856 22.394401l-60.784804 61.424644 14.076481 84.458885c1.27968 8.317921-2.55936 17.275681-9.597601 21.754561a22.394401 22.394401 0 0 1-24.313921 1.279681l-72.941765-39.030243-72.301925 39.030243a22.394401 22.394401 0 0 1-24.313921-1.279681 21.114721 21.114721 0 0 1-9.597601-21.754561l14.076481-84.458885-60.784804-61.424644a21.178705 21.178705 0 0 1-5.75856-22.394401z"
          p-id="3739"></path>
    <path d="M925.848602 192.591852h-319.92002c8.957761 30.072482 14.076481 62.064484 14.076481 95.336166 0 9.597601-0.63984 19.195201-1.91952 28.792802 7.67808 3.1992 12.156961 9.597601 12.15696 17.915521v118.370407c0 10.877281-8.317921 19.835041-19.835041 19.835042h-46.708323c-19.835041 30.072482-45.428643 56.945764-74.221444 78.700324h120.929767a19.195201 19.195201 0 0 1 19.835041 19.835042v117.730567a19.195201 19.195201 0 0 1-19.835041 19.835041h-196.430892a19.195201 19.195201 0 0 1-19.835041-19.835041v-86.378405c-24.953762 8.317921-51.187203 14.076481-78.700325 15.996001v70.382404c0 11.517121-8.957761 19.835041-19.835042 19.835041h-197.070732c-10.877281 0-19.835041-8.317921-19.835041-19.835041v-117.730567c0-8.317921 4.47888-14.716321 10.877281-17.915521-37.110722-26.873282-67.823044-62.064484-89.577606-102.374407v474.76131c0.63984 53.746563 44.148963 97.895526 98.535366 97.895526h827.313172c53.746563 0 97.895526-44.148963 97.895526-97.895526v-635.36116c0-53.746563-44.148963-97.895526-97.895526-97.895526z m-610.407398 733.256686c0 10.877281-8.957761 19.195201-19.835042 19.195201h-197.070732c-10.877281 0-19.835041-8.317921-19.835041-19.195201v-118.370408c0-10.877281 8.957761-19.835041 19.835041-19.835041h197.070732c10.877281 0 19.835041 8.957761 19.835042 19.835041v118.370408z m314.801299 0c0 10.877281-8.317921 19.195201-19.835041 19.195201h-196.430892c-11.517121 0-19.835041-8.317921-19.835041-19.195201v-118.370408c0-10.877281 8.317921-19.835041 19.835041-19.835041h196.430892c11.517121 0 19.835041 8.957761 19.835041 19.835041v118.370408z m314.8013 0c0 10.877281-8.317921 19.195201-19.195201 19.195201h-197.070732c-10.877281 0-19.835041-8.317921-19.835042-19.195201v-118.370408c0-10.877281 8.957761-19.835041 19.835042-19.835041h197.070732c10.877281 0 19.195201 8.957761 19.195201 19.835041v118.370408z m0-236.740815c0 11.517121-8.317921 19.835041-19.195201 19.835041h-197.070732c-10.877281 0-19.835041-8.317921-19.835042-19.835041v-117.730567c0-11.517121 8.957761-19.835041 19.835042-19.835042h197.070732c10.877281 0 19.195201 8.317921 19.195201 19.835042v117.730567z m0-236.100975c0 10.877281-8.317921 19.835041-19.195201 19.835042h-197.070732c-10.877281 0-19.835041-8.957761-19.835042-19.835042v-118.370407c0-10.877281 8.957761-19.195201 19.835042-19.195201h197.070732c10.877281 0 19.195201 8.317921 19.195201 19.195201v118.370407z"
          p-id="3740"></path>
</svg>
