<svg t="1686135973703" class="icon" viewBox="0 0 1024 1024" version="1.1" xmlns="http://www.w3.org/2000/svg" p-id="2837"
     width="48" height="48">
    <path d="M731.428571 365.714286v292.571428c0 21.942857-14.628571 36.571429-36.571428 36.571429S658.285714 680.228571 658.285714 658.285714V365.714286c0-21.942857 14.628571-36.571429 36.571429-36.571429s36.571429 14.628571 36.571428 36.571429zM548.571429 365.714286v292.571428c0 21.942857-14.628571 36.571429-36.571429 36.571429s-36.571429-14.628571-36.571429-36.571429V365.714286c0-21.942857 14.628571-36.571429 36.571429-36.571429s36.571429 14.628571 36.571429 36.571429zM365.714286 365.714286v292.571428c0 21.942857-14.628571 36.571429-36.571429 36.571429S292.571429 680.228571 292.571429 658.285714V365.714286c0-21.942857 14.628571-36.571429 36.571428-36.571429s36.571429 14.628571 36.571429 36.571429z m493.714285-201.142857h-175.542857c-14.628571 0-29.257143-10.971429-29.257143-29.257143s14.628571-25.6 32.914286-25.6h201.142857c14.628571 0 25.6 10.971429 25.6 29.257143v201.142857c0 14.628571-10.971429 25.6-29.257143 25.6s-29.257143-10.971429-29.257142-29.257143V164.571429h3.657142z m-694.857142 694.857142h175.542857c14.628571 0 29.257143 10.971429 29.257143 29.257143s-14.628571 25.6-32.914286 25.6H138.971429c-18.285714 0-29.257143-10.971429-29.257143-29.257143V683.885714c0-14.628571 10.971429-25.6 29.257143-25.6s29.257143 10.971429 29.257142 29.257143v171.885714h-3.657142zM859.428571 859.428571h-175.542857c-14.628571 0-29.257143 10.971429-29.257143 29.257143s10.971429 29.257143 29.257143 29.257143h201.142857c14.628571 0 29.257143-10.971429 29.257143-29.257143V687.542857c0-14.628571-10.971429-29.257143-29.257143-29.257143s-29.257143 10.971429-29.257142 29.257143v171.885714h3.657142z m-694.857142-694.857142h175.542857c14.628571 0 25.6-10.971429 25.6-25.6 0-14.628571-10.971429-29.257143-29.257143-29.257143H138.971429c-18.285714 0-29.257143 10.971429-29.257143 29.257143v201.142857c0 14.628571 10.971429 25.6 29.257143 25.6s29.257143-10.971429 29.257142-29.257143V164.571429h-3.657142z"
          p-id="2838"></path>
</svg>
