<?xml version="1.0" standalone="no"?><!DOCTYPE svg PUBLIC "-//W3C//DTD SVG 1.1//EN"
        "http://www.w3.org/Graphics/SVG/1.1/DTD/svg11.dtd">
<svg xmlns:xlink="http://www.w3.org/1999/xlink" t="1702181814728" class="icon" viewBox="0 0 1024 1024" version="1.1" xmlns="http://www.w3.org/2000/svg"
     p-id="6343" width="200" height="200">
    <path d="M512 0a512 512 0 1 0 512 512A512 512 0 0 0 512 0z m0 921.6a409.6 409.6 0 1 1 409.6-409.6 409.6 409.6 0 0 1-409.6 409.6z"
          p-id="6344"></path>
    <path d="M497.152 322.56a51.2 51.2 0 0 0-83.2 39.936v299.008a51.2 51.2 0 0 0 83.2 39.936l186.624-149.504a51.2 51.2 0 0 0 0-79.872z"
          p-id="6345"></path>
</svg>
